<svg width="250" height="250" viewBox="0 0 250 250" fill="none" xmlns="http://www.w3.org/2000/svg">
<rect width="250" height="250" fill="url(#paint0_linear_36_2)"/>
<rect x="20" y="74" width="102" height="102" fill="#F5512D" stroke="white" stroke-width="6"/>
<path d="M36.2776 151.5L51 126L65.7224 151.5H36.2776Z" fill="white" stroke="#F5512D"/>
<path d="M74.2776 156.5L89 131L103.722 156.5H74.2776Z" fill="white" stroke="#F5512D"/>
<path d="M36.2776 117.5L51 92L65.7224 117.5H36.2776Z" fill="white" stroke="#F5512D"/>
<path d="M74.2776 122.5L89 97L103.722 122.5H74.2776Z" fill="white" stroke="#F5512D"/>
<path d="M141.216 124.642L137.892 124.847C137.835 124.562 137.713 124.307 137.526 124.08C137.338 123.847 137.091 123.662 136.784 123.526C136.483 123.384 136.122 123.312 135.702 123.312C135.139 123.312 134.665 123.432 134.278 123.67C133.892 123.903 133.699 124.216 133.699 124.608C133.699 124.92 133.824 125.185 134.074 125.401C134.324 125.616 134.753 125.79 135.361 125.92L137.73 126.398C139.003 126.659 139.952 127.08 140.577 127.659C141.202 128.239 141.514 129 141.514 129.943C141.514 130.801 141.261 131.554 140.756 132.202C140.256 132.849 139.568 133.355 138.693 133.719C137.824 134.077 136.821 134.256 135.685 134.256C133.952 134.256 132.571 133.895 131.543 133.173C130.52 132.446 129.92 131.457 129.744 130.207L133.315 130.02C133.423 130.548 133.685 130.952 134.099 131.23C134.514 131.503 135.045 131.639 135.693 131.639C136.33 131.639 136.841 131.517 137.227 131.273C137.619 131.023 137.818 130.702 137.824 130.31C137.818 129.98 137.679 129.71 137.406 129.5C137.134 129.284 136.713 129.119 136.145 129.006L133.878 128.554C132.599 128.298 131.648 127.855 131.023 127.224C130.403 126.594 130.094 125.79 130.094 124.812C130.094 123.972 130.321 123.247 130.776 122.639C131.236 122.031 131.881 121.562 132.71 121.233C133.545 120.903 134.523 120.739 135.642 120.739C137.295 120.739 138.597 121.088 139.545 121.787C140.5 122.486 141.057 123.437 141.216 124.642ZM147.431 126.432V134H143.8V116.545H147.329V123.219H147.482C147.778 122.446 148.255 121.841 148.914 121.403C149.573 120.96 150.4 120.739 151.394 120.739C152.303 120.739 153.096 120.938 153.772 121.335C154.454 121.727 154.982 122.293 155.357 123.031C155.738 123.764 155.925 124.642 155.92 125.665V134H152.289V126.312C152.295 125.506 152.09 124.878 151.675 124.429C151.266 123.98 150.692 123.756 149.954 123.756C149.46 123.756 149.022 123.861 148.641 124.071C148.266 124.281 147.971 124.588 147.755 124.991C147.545 125.389 147.437 125.869 147.431 126.432ZM164.692 134.256C163.368 134.256 162.223 133.974 161.257 133.412C160.297 132.844 159.555 132.054 159.033 131.043C158.51 130.026 158.249 128.847 158.249 127.506C158.249 126.153 158.51 124.972 159.033 123.96C159.555 122.943 160.297 122.153 161.257 121.591C162.223 121.023 163.368 120.739 164.692 120.739C166.016 120.739 167.158 121.023 168.118 121.591C169.084 122.153 169.828 122.943 170.351 123.96C170.874 124.972 171.135 126.153 171.135 127.506C171.135 128.847 170.874 130.026 170.351 131.043C169.828 132.054 169.084 132.844 168.118 133.412C167.158 133.974 166.016 134.256 164.692 134.256ZM164.709 131.443C165.311 131.443 165.814 131.273 166.217 130.932C166.621 130.585 166.925 130.114 167.129 129.517C167.339 128.92 167.445 128.241 167.445 127.48C167.445 126.719 167.339 126.04 167.129 125.443C166.925 124.847 166.621 124.375 166.217 124.028C165.814 123.682 165.311 123.509 164.709 123.509C164.101 123.509 163.589 123.682 163.175 124.028C162.766 124.375 162.456 124.847 162.246 125.443C162.041 126.04 161.939 126.719 161.939 127.48C161.939 128.241 162.041 128.92 162.246 129.517C162.456 130.114 162.766 130.585 163.175 130.932C163.589 131.273 164.101 131.443 164.709 131.443ZM173.496 138.909V120.909H177.075V123.108H177.237C177.396 122.756 177.626 122.398 177.928 122.034C178.234 121.665 178.632 121.358 179.121 121.114C179.615 120.864 180.229 120.739 180.962 120.739C181.916 120.739 182.797 120.989 183.604 121.489C184.411 121.983 185.055 122.73 185.538 123.73C186.021 124.724 186.263 125.972 186.263 127.472C186.263 128.932 186.027 130.165 185.555 131.17C185.089 132.17 184.453 132.929 183.646 133.446C182.845 133.957 181.947 134.213 180.953 134.213C180.249 134.213 179.649 134.097 179.155 133.864C178.666 133.631 178.266 133.338 177.953 132.986C177.641 132.628 177.402 132.267 177.237 131.903H177.126V138.909H173.496ZM177.05 127.455C177.05 128.233 177.158 128.912 177.374 129.491C177.589 130.071 177.902 130.523 178.311 130.847C178.72 131.165 179.217 131.324 179.803 131.324C180.393 131.324 180.893 131.162 181.303 130.838C181.712 130.509 182.021 130.054 182.232 129.474C182.447 128.889 182.555 128.216 182.555 127.455C182.555 126.699 182.45 126.034 182.24 125.46C182.03 124.886 181.72 124.437 181.311 124.114C180.902 123.79 180.399 123.628 179.803 123.628C179.212 123.628 178.712 123.784 178.303 124.097C177.899 124.409 177.589 124.852 177.374 125.426C177.158 126 177.05 126.676 177.05 127.455ZM188.683 138.909V120.909H192.263V123.108H192.425C192.584 122.756 192.814 122.398 193.115 122.034C193.422 121.665 193.82 121.358 194.308 121.114C194.803 120.864 195.416 120.739 196.149 120.739C197.104 120.739 197.984 120.989 198.791 121.489C199.598 121.983 200.243 122.73 200.726 123.73C201.209 124.724 201.45 125.972 201.45 127.472C201.45 128.932 201.214 130.165 200.743 131.17C200.277 132.17 199.641 132.929 198.834 133.446C198.033 133.957 197.135 134.213 196.141 134.213C195.436 134.213 194.837 134.097 194.342 133.864C193.854 133.631 193.453 133.338 193.141 132.986C192.828 132.628 192.589 132.267 192.425 131.903H192.314V138.909H188.683ZM192.237 127.455C192.237 128.233 192.345 128.912 192.561 129.491C192.777 130.071 193.089 130.523 193.499 130.847C193.908 131.165 194.405 131.324 194.99 131.324C195.581 131.324 196.081 131.162 196.49 130.838C196.899 130.509 197.209 130.054 197.419 129.474C197.635 128.889 197.743 128.216 197.743 127.455C197.743 126.699 197.638 126.034 197.428 125.46C197.217 124.886 196.908 124.437 196.499 124.114C196.089 123.79 195.587 123.628 194.99 123.628C194.399 123.628 193.899 123.784 193.49 124.097C193.087 124.409 192.777 124.852 192.561 125.426C192.345 126 192.237 126.676 192.237 127.455ZM217.582 125.392V128.273H209.621V125.392H217.582ZM232.196 134.256C230.849 134.256 229.69 133.983 228.719 133.438C227.753 132.886 227.009 132.108 226.486 131.102C225.963 130.091 225.702 128.895 225.702 127.514C225.702 126.168 225.963 124.986 226.486 123.969C227.009 122.952 227.744 122.159 228.693 121.591C229.648 121.023 230.767 120.739 232.051 120.739C232.915 120.739 233.719 120.878 234.463 121.156C235.213 121.429 235.866 121.841 236.423 122.392C236.986 122.943 237.423 123.636 237.736 124.472C238.048 125.301 238.205 126.273 238.205 127.386V128.384H227.151V126.134H234.787C234.787 125.611 234.673 125.148 234.446 124.744C234.219 124.341 233.903 124.026 233.5 123.798C233.102 123.565 232.639 123.449 232.111 123.449C231.56 123.449 231.071 123.577 230.645 123.832C230.224 124.082 229.895 124.42 229.656 124.847C229.418 125.267 229.295 125.736 229.29 126.253V128.392C229.29 129.04 229.409 129.599 229.648 130.071C229.892 130.543 230.236 130.906 230.679 131.162C231.122 131.418 231.648 131.545 232.256 131.545C232.659 131.545 233.028 131.489 233.364 131.375C233.699 131.261 233.986 131.091 234.224 130.864C234.463 130.636 234.645 130.358 234.77 130.028L238.128 130.25C237.957 131.057 237.608 131.761 237.08 132.364C236.557 132.96 235.881 133.426 235.051 133.761C234.227 134.091 233.276 134.256 232.196 134.256Z" fill="white"/>
<defs>
<linearGradient id="paint0_linear_36_2" x1="3.99999" y1="246" x2="250" y2="8.93511e-06" gradientUnits="userSpaceOnUse">
<stop stop-color="#F5512D"/>
<stop offset="1" stop-color="#F98761"/>
</linearGradient>
</defs>
</svg>
